<?xml version="1.0" standalone="no"?>
<!DOCTYPE svg PUBLIC "-//W3C//DTD SVG 20010904//EN"
 "http://www.w3.org/TR/2001/REC-SVG-20010904/DTD/svg10.dtd">
<svg version="1.0" xmlns="http://www.w3.org/2000/svg"
 width="128.000000pt" height="128.000000pt" viewBox="0 0 128.000000 128.000000"
 preserveAspectRatio="xMidYMid meet">
<metadata>
Created by potrace 1.11, written by Peter Selinger 2001-2013
</metadata>
<g transform="translate(0.000000,128.000000) scale(0.100000,-0.100000)"
fill="#000000" stroke="none">
<path d="M411 1215 c-134 -85 -391 -330 -391 -373 0 -13 740 -608 796 -639 55
-31 68 -77 35 -119 -32 -41 -12 -54 42 -27 23 12 56 25 72 28 45 9 102 53 114
87 10 28 14 30 43 24 22 -4 45 0 77 16 70 33 77 54 35 93 -14 13 -34 39 -43
57 -9 19 -41 49 -72 71 -43 28 -61 48 -74 80 -17 44 -61 97 -80 97 -23 0 -65
57 -80 109 -21 69 -45 92 -93 90 -74 -5 -116 56 -97 142 4 17 4 59 0 94 -5 49
-12 69 -35 93 -33 36 -75 50 -101 33 -24 -14 -56 -14 -65 0 -4 7 -7 26 -8 42
-1 17 -5 32 -11 33 -5 2 -34 -12 -64 -31z m250 -463 l16 -47 56 -3 c31 -2 57
-6 57 -10 0 -4 -19 -20 -41 -36 -44 -31 -43 -27 -22 -121 l6 -29 -26 17 c-81
52 -70 50 -116 16 -24 -17 -45 -28 -48 -26 -2 3 2 28 11 56 l15 51 -46 37 -46
38 59 5 59 5 19 53 c10 29 21 50 25 47 3 -4 13 -27 22 -53z"/>
</g>
</svg>
